<svg width="38" height="35" viewBox="0 0 38 35" fill="none" xmlns="http://www.w3.org/2000/svg">
<path fill-rule="evenodd" clip-rule="evenodd" d="M19.6037 0.55336C19.42 0.21267 19.0813 0.00200266 18.7139 1.4197e-05C18.3466 -0.00197414 18.0059 0.205015 17.819 0.543699L14.4605 6.63066C14.1702 7.15688 14.3331 7.83553 14.8244 8.14648C15.3158 8.45743 15.9495 8.28292 16.2398 7.7567L18.6983 3.30095L34.5942 32.7866H13.0251V23.3043C13.62 24.1652 14.2112 24.8724 14.8372 25.447C16.1627 26.664 17.5773 27.2291 19.3269 27.5172C19.891 27.6101 20.4186 27.1956 20.5053 26.5915C20.592 25.9873 20.2051 25.4223 19.641 25.3294C18.1652 25.0865 17.1423 24.648 16.1824 23.7666C15.216 22.8794 14.2559 21.4918 13.0251 19.2111V17.7707C13.62 18.6316 14.2112 19.3388 14.8372 19.9135C16.1627 21.1304 17.5773 21.6955 19.3269 21.9836C19.891 22.0765 20.4186 21.662 20.5053 21.0579C20.592 20.4538 20.2051 19.8887 19.641 19.7959C18.1652 19.5529 17.1423 19.1144 16.1824 18.233C15.216 17.3458 14.2559 15.9582 13.0251 13.6775V12.7903C13.62 13.6512 14.2112 14.3583 14.8372 14.933C16.1627 16.15 17.5773 16.7151 19.3269 17.0032C19.891 17.096 20.4186 16.6816 20.5053 16.0774C20.592 15.4733 20.2051 14.9083 19.641 14.8154C18.1652 14.5724 17.1423 14.1339 16.1824 13.2526C15.1832 12.3351 14.1905 10.8827 12.8984 8.46087L12.8918 8.44815C12.8463 8.36169 12.7897 8.28121 12.7226 8.20944C12.656 8.13808 12.5814 8.07777 12.5013 8.02925C12.429 7.98528 12.3512 7.95038 12.2695 7.92599C12.1779 7.89857 12.0845 7.88528 11.9918 7.88538C11.9017 7.88529 11.811 7.89783 11.7219 7.92368C11.6337 7.94915 11.5502 7.98681 11.473 8.03487C11.3964 8.08241 11.3249 8.14085 11.2608 8.20952C11.1982 8.27654 11.1447 8.35116 11.1009 8.43115C11.0951 8.44154 11.0895 8.45203 11.0842 8.46264C9.79252 10.8834 8.80011 12.3354 7.80111 13.2526C6.84116 14.1339 5.81833 14.5724 4.34256 14.8154C3.77846 14.9083 3.39146 15.4733 3.47818 16.0774C3.5649 16.6816 4.0925 17.096 4.6566 17.0032C6.40624 16.7151 7.82085 16.15 9.14629 14.933C9.77226 14.3583 10.3635 13.6512 10.9583 12.7903V13.6776C9.72763 15.9583 8.76743 17.3458 7.80111 18.233C6.84116 19.1144 5.81833 19.5529 4.34256 19.7959C3.77846 19.8887 3.39146 20.4538 3.47818 21.0579C3.5649 21.662 4.0925 22.0765 4.6566 21.9836C6.40624 21.6955 7.82085 21.1304 9.14629 19.9135C9.77226 19.3388 10.3635 18.6317 10.9583 17.7708V19.2112C9.72763 21.4919 8.76743 22.8794 7.80111 23.7666C6.84116 24.648 5.81833 25.0865 4.34256 25.3294C3.77846 25.4223 3.39146 25.9873 3.47818 26.5915C3.5649 27.1956 4.0925 27.6101 4.6566 27.5172C6.40624 27.2291 7.82085 26.664 9.14629 25.447C9.77226 24.8724 10.3635 24.1653 10.9583 23.3044V32.7866H2.87032L4.34924 30.1793C4.64556 29.657 4.49035 28.9762 4.00257 28.6589C3.51479 28.3415 2.87916 28.5078 2.58284 29.0301L0.150197 33.3187C-0.0436275 33.6604 -0.0502997 34.0875 0.132743 34.4359C0.315785 34.7844 0.660083 35 1.03341 35H36.3841C36.7533 35 37.0944 34.7891 37.279 34.4466C37.4637 34.1042 37.4637 33.6823 37.279 33.3399L19.6037 0.55336Z" fill="#45536D"/>
</svg>
